<svg width="32" height="32" viewBox="0 0 32 32" fill="none" xmlns="http://www.w3.org/2000/svg">
<rect width="32" height="32" rx="8" fill="#2F2F2F"/>
<path d="M8.22305 15.9794C5.75468 13.6005 5.98487 10.2713 7.7737 8.23153C9.46703 6.30067 13.0802 5.33585 16.0211 8.21071C17.27 6.94837 18.7662 6.28353 20.5746 6.42433C21.9827 6.53453 23.1544 7.13202 24.1242 8.13969C26.1983 10.2971 26.0807 13.1548 23.8058 16.0027C26.1285 18.9816 26.1799 21.892 23.9564 24.0482C22.0329 25.9129 18.5667 26.4027 16.0052 23.7837C13.281 26.4957 9.86863 25.815 8.04918 24.0531C6.26403 22.3242 5.40328 18.8519 8.22427 15.9794H8.22305ZM12.6994 11.7492C12.4068 12.0369 12.0921 12.2242 11.9672 12.4973C11.7737 12.9197 12.0088 13.2552 12.3761 13.5331C14.2886 14.9779 14.2886 17.0202 12.3774 18.4625C12.0345 18.7221 11.7823 19.0392 11.9513 19.4396C12.0615 19.6991 12.3774 20.0322 12.6112 20.0407C12.9124 20.0518 13.3226 19.8473 13.5136 19.6012C14.9669 17.7413 17.0056 17.7217 18.4479 19.5547C18.6524 19.8155 19.0735 20.0444 19.3858 20.0358C19.6221 20.0285 20.0261 19.622 20.0322 19.3857C20.0396 19.0722 19.8021 18.6719 19.5462 18.4503C18.9609 17.9434 18.4418 17.4144 18.2752 16.6357C17.9826 15.2644 18.5813 14.2873 19.6478 13.4829C19.8804 13.3078 20.0775 12.8977 20.0494 12.6209C20.0249 12.3761 19.6821 12.0075 19.4458 11.9794C19.1482 11.9439 18.6756 12.1079 18.5213 12.3442C17.3153 14.1943 14.831 14.3657 13.4842 12.3442C13.3336 12.1177 13.03 11.9928 12.6982 11.7492H12.6994Z" fill="white"/>
</svg>
